<?xml version="1.0" encoding="UTF-8"?>
<svg xmlns="http://www.w3.org/2000/svg" xmlns:xlink="http://www.w3.org/1999/xlink" width="24px" height="24px" viewBox="0 0 24 24" version="1.1">
<g id="surface1">
<path style=" stroke:none;fill-rule:nonzero;fill:rgb(0%,0%,0%);fill-opacity:1;" d="M 23.929688 13.335938 L 22.652344 9.398438 C 22.652344 9.402344 22.652344 9.402344 22.652344 9.40625 C 22.652344 9.402344 22.652344 9.402344 22.652344 9.398438 L 20.113281 1.585938 C 19.976562 1.175781 19.589844 0.898438 19.15625 0.902344 C 18.722656 0.902344 18.339844 1.179688 18.210938 1.59375 L 15.800781 9.007812 L 8.203125 9.007812 L 5.789062 1.59375 C 5.660156 1.179688 5.277344 0.902344 4.84375 0.902344 L 4.839844 0.902344 C 4.40625 0.902344 4.019531 1.183594 3.882812 1.59375 L 1.355469 9.398438 C 1.351562 9.398438 1.351562 9.402344 1.351562 9.402344 C 1.351562 9.402344 1.351562 9.402344 1.355469 9.398438 L 0.0703125 13.335938 C -0.121094 13.925781 0.0859375 14.578125 0.59375 14.941406 L 11.667969 22.988281 C 11.667969 22.988281 11.671875 22.992188 11.671875 22.992188 C 11.675781 22.996094 11.679688 23 11.6875 23 C 11.679688 23 11.675781 22.996094 11.671875 22.992188 C 11.671875 22.992188 11.675781 22.992188 11.675781 22.992188 C 11.675781 22.996094 11.675781 22.996094 11.675781 22.996094 C 11.695312 23.007812 11.710938 23.019531 11.730469 23.027344 C 11.734375 23.03125 11.734375 23.03125 11.738281 23.03125 C 11.738281 23.035156 11.742188 23.035156 11.742188 23.035156 C 11.746094 23.035156 11.746094 23.035156 11.746094 23.035156 C 11.746094 23.039062 11.75 23.039062 11.75 23.039062 C 11.75 23.039062 11.753906 23.039062 11.753906 23.039062 C 11.765625 23.046875 11.773438 23.046875 11.785156 23.054688 C 11.792969 23.054688 11.804688 23.0625 11.8125 23.0625 L 11.8125 23.066406 C 11.816406 23.066406 11.816406 23.066406 11.820312 23.066406 C 11.820312 23.066406 11.824219 23.066406 11.824219 23.070312 L 11.828125 23.070312 C 11.828125 23.070312 11.832031 23.070312 11.835938 23.070312 C 11.851562 23.074219 11.863281 23.078125 11.878906 23.082031 C 11.882812 23.082031 11.890625 23.085938 11.894531 23.085938 C 11.894531 23.085938 11.894531 23.085938 11.898438 23.085938 C 11.898438 23.085938 11.898438 23.085938 11.902344 23.085938 C 11.90625 23.089844 11.90625 23.089844 11.910156 23.089844 C 11.914062 23.089844 11.914062 23.089844 11.917969 23.089844 C 11.945312 23.09375 11.972656 23.097656 12 23.097656 C 12.027344 23.097656 12.054688 23.09375 12.078125 23.089844 L 12.082031 23.089844 C 12.082031 23.089844 12.085938 23.089844 12.089844 23.089844 C 12.089844 23.089844 12.09375 23.089844 12.097656 23.085938 C 12.097656 23.085938 12.101562 23.085938 12.101562 23.085938 C 12.101562 23.085938 12.105469 23.085938 12.105469 23.085938 C 12.109375 23.085938 12.113281 23.082031 12.121094 23.082031 C 12.132812 23.078125 12.148438 23.074219 12.160156 23.070312 C 12.160156 23.070312 12.164062 23.070312 12.164062 23.070312 C 12.167969 23.070312 12.167969 23.070312 12.171875 23.070312 C 12.171875 23.070312 12.171875 23.070312 12.175781 23.070312 C 12.175781 23.070312 12.179688 23.066406 12.179688 23.066406 C 12.183594 23.066406 12.183594 23.066406 12.183594 23.066406 L 12.1875 23.0625 C 12.195312 23.0625 12.207031 23.054688 12.214844 23.050781 C 12.226562 23.046875 12.234375 23.046875 12.242188 23.039062 C 12.246094 23.039062 12.246094 23.039062 12.25 23.039062 C 12.25 23.039062 12.25 23.039062 12.253906 23.035156 C 12.253906 23.035156 12.253906 23.035156 12.257812 23.035156 C 12.257812 23.035156 12.257812 23.035156 12.261719 23.03125 C 12.261719 23.03125 12.265625 23.03125 12.269531 23.027344 C 12.285156 23.019531 12.304688 23.007812 12.320312 22.996094 C 12.324219 22.996094 12.324219 22.992188 12.324219 22.992188 C 12.324219 22.992188 12.328125 22.992188 12.328125 22.992188 C 12.328125 22.992188 12.332031 22.988281 12.332031 22.988281 L 23.410156 14.941406 C 23.914062 14.578125 24.121094 13.925781 23.929688 13.335938 Z M 19.164062 2.320312 L 21.335938 9.007812 L 16.992188 9.007812 Z M 4.835938 2.320312 L 7.015625 9.007812 L 2.667969 9.007812 Z M 1.257812 14.027344 C 1.148438 13.949219 1.105469 13.8125 1.144531 13.683594 L 2.101562 10.757812 L 9.085938 19.714844 Z M 3.050781 10.136719 L 7.382812 10.136719 L 10.46875 19.652344 Z M 11.648438 22.972656 C 11.644531 22.972656 11.644531 22.96875 11.640625 22.96875 C 11.636719 22.964844 11.632812 22.960938 11.628906 22.957031 C 11.617188 22.949219 11.609375 22.941406 11.605469 22.933594 C 11.605469 22.933594 11.605469 22.9375 11.605469 22.9375 L 11.609375 22.9375 C 11.625 22.953125 11.640625 22.96875 11.660156 22.980469 L 11.660156 22.984375 C 11.660156 22.984375 11.660156 22.984375 11.664062 22.984375 C 11.65625 22.980469 11.652344 22.976562 11.648438 22.972656 Z M 12 20.703125 L 10.183594 15.105469 L 8.570312 10.136719 L 15.433594 10.136719 Z M 12.371094 22.957031 C 12.367188 22.960938 12.363281 22.964844 12.359375 22.96875 C 12.355469 22.96875 12.351562 22.972656 12.351562 22.972656 C 12.347656 22.976562 12.339844 22.980469 12.335938 22.984375 C 12.335938 22.984375 12.339844 22.984375 12.339844 22.984375 L 12.339844 22.980469 C 12.355469 22.96875 12.375 22.953125 12.390625 22.9375 C 12.394531 22.9375 12.394531 22.9375 12.394531 22.933594 C 12.386719 22.941406 12.378906 22.949219 12.371094 22.957031 Z M 16.625 10.136719 L 20.953125 10.136719 L 20.066406 11.273438 L 13.53125 19.652344 Z M 22.742188 14.027344 L 14.914062 19.714844 L 21.902344 10.757812 L 22.855469 13.683594 C 22.894531 13.808594 22.851562 13.949219 22.742188 14.027344 Z M 22.742188 14.027344 "/>
</g>
</svg>
